#!OML:ASF H:\Dans Jumps\Project 1\Capture day 1\Session 1\subject.ASF
:FULLY-SPECIFIED
:DEGREES
374
root 0.432792 17.7307 -2.36644 7.30247 -2.47512 -1.10581
lowerback -0.0950315 -0.266517 -0.608245
upperback 4.13457 -0.39073 1.31655
thorax 4.32505 -0.244581 1.68385
lowerneck -12.3941 0.485601 -2.1888
upperneck 35.6706 0.909146 1.08031
head 14.2657 0.228838 0.965803
rclavicle 1.42131e-014 -1.51076e-014
rhumerus -22.2342 -11.098 -83.2105
rradius 23.752
rwrist 31.8359
rhand -18.4623 -25.9513
rfingers 7.12502
rthumb 7.82418 -55.7865
lclavicle 1.42131e-014 -1.51076e-014
lhumerus -18.9415 -4.79256 89.1468
lradius 19.1953
lwrist 7.17843
lhand -26.1912 -4.03104
lfingers 7.12502
lthumb 0.361064 25.9484
rfemur -16.5945 -0.0106292 18.3648
rtibia 23.837
rfoot -13.0106 1.68761
rtoes 14.017
lfemur -14.0659 6.78894 -17.9264
ltibia 20.4429
lfoot -9.5548 7.53459
ltoes 1.87218
375
root 0.430948 17.7302 -2.36802 7.28178 -2.48354 -1.10864
lowerback -0.0872755 -0.270333 -0.621886
upperback 4.1272 -0.395276 1.31254
thorax 4.31318 -0.247149 1.6872
lowerneck -12.3884 0.488825 -2.19655
upperneck 35.6815 0.911189 1.09306
head 14.2693 0.230135 0.972741
rclavicle 1.98785e-015 -1.98785e-015
rhumerus -22.1426 -10.9934 -83.2713
rradius 23.8289
rwrist 31.722
rhand -18.5285 -25.9744
rfingers 7.12502
rthumb 7.76021 -55.812
lclavicle 1.98785e-015 -1.98785e-015
lhumerus -18.8436 -4.80697 89.1157
lradius 19.2254
lwrist 7.17499
lhand -26.2361 -4.14901
lfingers 7.12502
lthumb 0.317722 25.8305
rfemur -16.5817 -0.00788297 18.3748
rtibia 23.845
rfoot -13.0147 1.69335
rtoes 14.0367
lfemur -14.0515 6.79623 -17.9144
ltibia 20.4539
lfoot -9.55813 7.53798
ltoes 1.86241
376
root 0.429214 17.7298 -2.36969 7.26129 -2.4887 -1.11441
lowerback -0.0775682 -0.274029 -0.628357
upperback 4.11894 -0.39979 1.30736
thorax 4.29922 -0.249396 1.68532
lowerneck -12.3802 0.490973 -2.20582
upperneck 35.6912 0.910571 1.10982
head 14.2716 0.230644 0.981138
rclavicle 8.34896e-015 -1.33186e-014
rhumerus -22.0552 -10.8936 -83.3328
rradius 23.9029
rwrist 31.6096
rhand -18.5777 -26.001
rfingers 7.12502
rthumb 7.71278 -55.8404
lclavicle 8.34896e-015 -1.33186e-014
lhumerus -18.7488 -4.81459 89.0811
lradius 19.2498
lwrist 7.15317
lhand -26.2624 -4.24264
lfingers 7.12502
lthumb 0.292347 25.7369
rfemur -16.5677 -0.00903928 18.3877
rtibia 23.851
rfoot -13.0185 1.70071
rtoes 14.0542
lfemur -14.0391 6.80154 -17.8997
ltibia 20.4668
lfoot -9.56206 7.54083
ltoes 1.85843
377
root 0.42755 17.7293 -2.37141 7.24221 -2.48991 -1.1247
lowerback -0.0682891 -0.278167 -0.628044
upperback 4.11064 -0.405091 1.30299
thorax 4.28543 -0.251804 1.68045
lowerneck -12.3741 0.493159 -2.21554
upperneck 35.7021 0.910488 1.1259
head 14.2751 0.231226 0.989461
rclavicle -3.47873e-016 -9.74045e-015
rhumerus -21.969 -10.8013 -83.3917
rradius 23.9736
rwrist 31.5113
rhand -18.6278 -26.027
rfingers 7.12502
rthumb 7.6644 -55.8681
lclavicle -3.47873e-016 -9.74045e-015
lhumerus -18.6534 -4.81676 89.0455
lradius 19.2659
lwrist 7.1266
lhand -26.2575 -4.29428
lfingers 7.12502
lthumb 0.297091 25.6853
rfemur -16.5545 -0.0126968 18.4054
rtibia 23.8565
rfoot -13.0221 1.70751
rtoes 14.0679
lfemur -14.0297 6.80214 -17.8801
ltibia 20.4804
lfoot -9.56363 7.54542
ltoes 1.85223
378
root 0.425905 17.7289 -2.37314 7.22599 -2.48738 -1.12952
lowerback -0.0639168 -0.282374 -0.631457
upperback 4.10339 -0.410325 1.29654
thorax 4.27554 -0.254299 1.67551
lowerneck -12.3739 0.494251 -2.22231
upperneck 35.7144 0.908968 1.13975
head 14.2806 0.231288 0.996202
rclavicle -3.32964e-015 1.27222e-014
rhumerus -21.8837 -10.7164 -83.4483
rradius 24.0422
rwrist 31.425
rhand -18.6306 -26.0582
rfingers 7.12502
rthumb 7.66168 -55.8994
lclavicle -3.32964e-015 1.27222e-014
lhumerus -18.5563 -4.8227 89.0114
lradius 19.2748
lwrist 7.1094
lhand -26.2532 -4.33427
lfingers 7.12502
lthumb 0.301221 25.6453
rfemur -16.5451 -0.0204277 18.417
rtibia 23.8634
rfoot -13.025 1.71394
rtoes 14.0809
lfemur -14.0241 6.79911 -17.8669
ltibia 20.4932
lfoot -9.56346 7.54855
ltoes 1.84077
379
root 0.424212 17.7285 -2.37487 7.21177 -2.48229 -1.13119
lowerback -0.062875 -0.286715 -0.638593
upperback 4.09625 -0.415629 1.28954
thorax 4.26768 -0.256963 1.67207
lowerneck -12.3799 0.495323 -2.22528
upperneck 35.7311 0.907799 1.15019
head 14.2896 0.231512 1.00104
rclavicle -4.82053e-015 1.23246e-014
rhumerus -21.8018 -10.6366 -83.5025
rradius 24.1096
rwrist 31.3472
rhand -18.6325 -26.0812
rfingers 7.12502
rthumb 7.65992 -55.9225
lclavicle -4.82053e-015 1.23246e-014
lhumerus -18.4636 -4.82525 88.9781
lradius 19.2828
lwrist 7.09712
lhand -26.2464 -4.35006
lfingers 7.12502
lthumb 0.307786 25.6295
rfemur -16.5388 -0.0279762 18.4251
rtibia 23.8721
rfoot -13.0276 1.71777
rtoes 14.0921
lfemur -14.0202 6.79457 -17.8573
ltibia 20.5035
lfoot -9.56261 7.54879
ltoes 1.83619
380
root 0.422476 17.7281 -2.37662 7.20018 -2.47357 -1.13116
lowerback -0.0661128 -0.291365 -0.648232
upperback 4.0897 -0.421291 1.28259
thorax 4.2629 -0.259918 1.67008
lowerneck -12.3939 0.496585 -2.22037
upperneck 35.7523 0.907936 1.15237
head 14.3026 0.232209 1.00143
rclavicle -1.04362e-014 -5.36719e-015
rhumerus -21.721 -10.5619 -83.5549
rradius 24.172
rwrist 31.2703
rhand -18.632 -26.1045
rfingers 7.12502
rthumb 7.66031 -55.9458
lclavicle -1.04362e-014 -5.36719e-015
lhumerus -18.3724 -4.82663 88.9459
lradius 19.2872
lwrist 7.09416
lhand -26.2438 -4.3501
lfingers 7.12502
lthumb 0.310234 25.6294
rfemur -16.5363 -0.0356136 18.4316
rtibia 23.8825
rfoot -13.0292 1.71718
rtoes 14.1012
lfemur -14.0182 6.78757 -17.8494
ltibia 20.5102
lfoot -9.56142 7.5463
ltoes 1.84145
381
root 0.420722 17.7279 -2.37827 7.18969 -2.46215 -1.13043
lowerback -0.0719777 -0.296158 -0.659732
upperback 4.08286 -0.42712 1.27636
thorax 4.25935 -0.263042 1.66984
lowerneck -12.413 0.498346 -2.20846
upperneck 35.7789 0.909916 1.14654
head 14.3193 0.233518 0.997712
rclavicle -2.18663e-015 -7.35503e-015
rhumerus -21.6461 -10.4821 -83.6068
rradius 24.2363
rwrist 31.1912
rhand -18.6366 -26.1128
rfingers 7.12502
rthumb 7.65592 -55.9542
lclavicle -2.18663e-015 -7.35503e-015
lhumerus -18.2849 -4.81661 88.9138
lradius 19.2877
lwrist 7.08432
lhand -26.2419 -4.33381
lfingers 7.12502
lthumb 0.312083 25.6457
rfemur -16.5346 -0.0429371 18.4372
rtibia 23.8928
rfoot -13.0295 1.71379
rtoes 14.1077
lfemur -14.0157 6.78226 -17.8423
ltibia 20.514
lfoot -9.56152 7.53853
ltoes 1.84542
382
root 0.418967 17.7277 -2.3799 7.17867 -2.45003 -1.13028
lowerback -0.0779831 -0.299237 -0.669744
upperback 4.07555 -0.430665 1.26938
thorax 4.25528 -0.264952 1.66809
lowerneck -12.433 0.499327 -2.19042
upperneck 35.8084 0.910285 1.13739
head 14.3377 0.234504 0.991343
rclavicle 1.03865e-014 -2.32578e-014
rhumerus -21.5782 -10.4011 -83.6599
rradius 24.2997
rwrist 31.1035
rhand -18.6579 -26.1144
rfingers 7.12502
rthumb 7.63537 -55.9566
lclavicle 1.03865e-014 -2.32578e-014
lhumerus -18.2044 -4.80347 88.8816
lradius 19.2857
lwrist 7.07246
lhand -26.2468 -4.31393
lfingers 7.12502
lthumb 0.307338 25.6656
rfemur -16.5316 -0.0488265 18.4435
rtibia 23.9017
rfoot -13.0282 1.70769
rtoes 14.1036
lfemur -14.0119 6.7803 -17.8346
ltibia 20.5163
lfoot -9.56191 7.52654
ltoes 1.84812
383
root 0.417233 17.7275 -2.38153 7.16739 -2.43703 -1.13065
lowerback -0.0833293 -0.301756 -0.679415
upperback 4.06733 -0.433484 1.26304
thorax 4.24986 -0.266488 1.66683
lowerneck -12.4503 0.500948 -2.17065
upperneck 35.8384 0.911725 1.1264
head 14.3557 0.235951 0.984068
rclavicle -8.34896e-015 1.45113e-014
rhumerus -21.519 -10.3092 -83.7128
rradius 24.3679
rwrist 31.0109
rhand -18.7004 -26.112
rfingers 7.12502
rthumb 7.59436 -55.9556
lclavicle -8.34896e-015 1.45113e-014
lhumerus -18.1301 -4.78051 88.8504
lradius 19.2793
lwrist 7.05526
lhand -26.2573 -4.30405
lfingers 7.12502
lthumb 0.297223 25.6755
rfemur -16.5268 -0.0533091 18.4505
rtibia 23.9082
rfoot -13.0268 1.70042
rtoes 14.0995
lfemur -14.0077 6.78027 -17.8263
ltibia 20.5185
lfoot -9.56389 7.51239
ltoes 1.84799
384
root 0.415503 17.7273 -2.3832 7.15576 -2.42354 -1.13118
lowerback -0.087049 -0.302963 -0.688397
upperback 4.05739 -0.434555 1.25665
thorax 4.24167 -0.267098 1.66521
lowerneck -12.4604 0.501453 -2.15166
upperneck 35.8662 0.910827 1.11743
head 14.3711 0.23661 0.977313
rclavicle -2.98177e-016 -3.37934e-015
rhumerus -21.4699 -10.2137 -83.7645
rradius 24.437
rwrist 30.9142
rhand -18.7327 -26.1062
rfingers 7.12502
rthumb 7.56319 -55.951
lclavicle -2.98177e-016 -3.37934e-015
lhumerus -18.0642 -4.75188 88.8207
lradius 19.271
lwrist 7.03192
lhand -26.2829 -4.31574
lfingers 7.12502
lthumb 0.272501 25.6638
rfemur -16.5208 -0.055205 18.4577
rtibia 23.9136
rfoot -13.0269 1.68978
rtoes 14.0911
lfemur -14.0031 6.78196 -17.8178
ltibia 20.5208
lfoot -9.56579 7.49591
ltoes 1.84571
385
root 0.413788 17.727 -2.38485 7.14214 -2.40959 -1.13489
lowerback -0.0878899 -0.30342 -0.693225
upperback 4.04722 -0.434741 1.2507
thorax 4.23154 -0.267115 1.66175
lowerneck -12.4652 0.501655 -2.13391
upperneck 35.891 0.90871 1.11118
head 14.3839 0.236993 0.971618
rclavicle -9.79014e-015 -2.68359e-015
rhumerus -21.4299 -10.1172 -83.8149
rradius 24.5082
rwrist 30.8237
rhand -18.7725 -26.0947
rfingers 7.12502
rthumb 7.5247 -55.9408
lclavicle -9.79014e-015 -2.68359e-015
lhumerus -18.0032 -4.71457 88.7901
lradius 19.2597
lwrist 6.9951
lhand -26.3027 -4.32624
lfingers 7.12502
lthumb 0.253359 25.6533
rfemur -16.5115 -0.0539735 18.4684
rtibia 23.9177
rfoot -13.0298 1.6763
rtoes 14.0875
lfemur -13.9971 6.78496 -17.8053
ltibia 20.5244
lfoot -9.56816 7.47928
ltoes 1.84639
386
root 0.412069 17.7267 -2.38649 7.12855 -2.39373 -1.13288
lowerback -0.0907011 -0.30328 -0.703188
upperback 4.03755 -0.433959 1.24341
thorax 4.22304 -0.266817 1.65983
lowerneck -12.4614 0.500564 -2.12156
upperneck 35.9086 0.90384 1.11086
head 14.3914 0.236372 0.968735
rclavicle -4.72114e-015 5.96354e-016
rhumerus -21.3961 -10.0282 -83.8606
rradius 24.5776
rwrist 30.7438
rhand -18.7789 -26.0854
rfingers 7.12502
rthumb 7.51858 -55.9318
lclavicle -4.72114e-015 5.96354e-016
lhumerus -17.9476 -4.6773 88.7622
lradius 19.2465
lwrist 6.95725
lhand -26.3304 -4.35245
lfingers 7.12502
lthumb 0.226586 25.6272
rfemur -16.5016 -0.0557576 18.4732
rtibia 23.9211
rfoot -13.0337 1.6623
rtoes 14.0857
lfemur -13.9922 6.78645 -17.7991
ltibia 20.5296
lfoot -9.57062 7.46295
ltoes 1.83697
387
root 0.410251 17.7263 -2.38825 7.11461 -2.3772 -1.13365
lowerback -0.0932074 -0.302824 -0.712055
upperback 4.02953 -0.432855 1.23773
thorax 4.2161 -0.266372 1.65897
lowerneck -12.4535 0.499337 -2.11548
upperneck 35.9202 0.898276 1.11652
head 14.3951 0.235489 0.969203
rclavicle -4.02539e-015 -3.77691e-015
rhumerus -21.3645 -9.94693 -83.9031
rradius 24.6456
rwrist 30.6752
rhand -18.7996 -26.0591
rfingers 7.12502
rthumb 7.4986 -55.9062
lclavicle -4.02539e-015 -3.77691e-015
lhumerus -17.8964 -4.62455 88.734
lradius 19.2334
lwrist 6.90224
lhand -26.3536 -4.37754
lfingers 7.12502
lthumb 0.204268 25.6021
rfemur -16.4914 -0.0556456 18.4814
rtibia 23.9238
rfoot -13.0373 1.64639
rtoes 14.0861
lfemur -13.9886 6.78888 -17.7896
ltibia 20.5363
lfoot -9.57273 7.44591
ltoes 1.82692
